<svg xmlns="http://www.w3.org/2000/svg" fill="none" viewBox="1 3 119 37">
  <path d="M63.717 12.297a2.407 2.407 0 01-2.417 2.407 2.407 2.407 0 01-2.416-2.407A2.383 2.383 0 0161.3 9.89c1.376.037 2.417 1.11 2.417 2.407zm-9.964 4.852v.593s-1.152-1.483-3.605-1.483c-4.052 0-7.213 3.075-7.213 7.334 0 4.222 3.124 7.333 7.213 7.333 2.49 0 3.605-1.518 3.605-1.518v.629c0 .296.224.518.521.518h3.01V16.629h-3.01a.533.533 0 00-.52.52zm0 8.925c-.557.815-1.672 1.519-3.01 1.519-2.38 0-4.202-1.481-4.202-4s1.823-4 4.202-4c1.3 0 2.49.74 3.01 1.518v4.963zm5.763-9.444h3.568v13.926h-3.568V16.63zm53.31-.37c-2.454 0-3.607 1.481-3.607 1.481V9.927h-3.568v20.629h3.011a.531.531 0 00.52-.519v-.63s1.153 1.52 3.606 1.52c4.052 0 7.212-3.11 7.212-7.333 0-4.223-3.16-7.335-7.174-7.335v.001zm-.595 11.296c-1.376 0-2.454-.703-3.012-1.519v-4.963c.558-.74 1.748-1.518 3.012-1.518 2.379 0 4.2 1.481 4.2 4 0 2.518-1.821 4-4.2 4zm-8.439-5.259v8.296h-3.569v-7.889c0-2.296-.744-3.222-2.75-3.222-1.078 0-2.193.555-2.9 1.37v9.704h-3.569V16.63h2.825c.297 0 .52.26.52.519v.593c1.041-1.075 2.417-1.483 3.792-1.483 1.562 0 2.863.445 3.904 1.334 1.263 1.037 1.747 2.37 1.747 4.704zm-21.45-6.038c-2.454 0-3.606 1.482-3.606 1.482V9.927h-3.57v20.629h3.012a.53.53 0 00.52-.519v-.63s1.153 1.52 3.606 1.52c4.053 0 7.212-3.11 7.212-7.333.037-4.223-3.122-7.335-7.175-7.335h.001zm-.596 11.297c-1.375 0-2.453-.703-3.01-1.519v-4.963c.557-.74 1.747-1.518 3.01-1.518 2.38 0 4.201 1.481 4.201 4 0 2.518-1.82 4-4.2 4zm-9.665-11.297c1.078 0 1.636.186 1.636.186v3.296s-2.974-1-4.833 1.111v9.74h-3.57V16.63h3.012c.298 0 .52.26.52.518v.593c.67-.778 2.12-1.482 3.235-1.482zM35.017 29.297c-.185-.445-.37-.926-.557-1.334-.298-.666-.595-1.296-.855-1.889l-.037-.037a385.563 385.563 0 00-8.216-16.74l-.11-.222a72.357 72.357 0 01-.893-1.741c-.372-.667-.744-1.37-1.339-2.037C21.82 3.815 20.11 3 18.29 3c-1.86 0-3.532.815-4.759 2.222-.558.667-.967 1.37-1.338 2.037-.29.584-.588 1.165-.892 1.741l-.112.223c-2.862 5.555-5.65 11.184-8.215 16.74l-.038.073c-.26.594-.558 1.223-.855 1.89-.199.439-.384.883-.557 1.333-.484 1.37-.633 2.666-.446 4a7.877 7.877 0 004.833 6.148c.966.408 1.97.593 3.01.593.298 0 .67-.037.967-.074a9.844 9.844 0 003.718-1.26c1.525-.851 2.974-2.073 4.61-3.85 1.635 1.777 3.122 2.999 4.61 3.85A9.846 9.846 0 0027.51 40c1.041 0 2.082-.185 3.01-.593 2.604-1.038 4.425-3.407 4.834-6.148.295-1.296.147-2.592-.337-3.962zm-16.765 1.925c-2.008-2.518-3.31-4.888-3.755-6.888-.185-.852-.223-1.593-.11-2.26.072-.558.276-1.09.594-1.555.706-1 1.896-1.63 3.271-1.63 1.376 0 2.603.593 3.272 1.63.298.444.52.963.595 1.556.111.667.074 1.444-.11 2.26-.449 1.962-1.75 4.332-3.757 6.887zm14.832 1.741c-.26 1.926-1.56 3.593-3.382 4.334-.893.37-1.86.481-2.826.37-.929-.112-1.859-.408-2.825-.963-1.338-.741-2.676-1.889-4.238-3.593 2.454-3 3.94-5.74 4.498-8.184a9.236 9.236 0 00.186-3.15 5.994 5.994 0 00-1.003-2.518c-1.154-1.667-3.087-2.63-5.242-2.63-2.156 0-4.09 1-5.242 2.63a5.998 5.998 0 00-1.004 2.519 7.663 7.663 0 00.186 3.149c.557 2.443 2.082 5.221 4.498 8.221-1.524 1.704-2.9 2.852-4.238 3.593-.967.556-1.896.852-2.825.963a5.968 5.968 0 01-2.826-.37c-1.82-.74-3.12-2.408-3.38-4.334a6.106 6.106 0 01.334-2.888c.11-.371.297-.741.483-1.185.26-.593.557-1.223.855-1.853l.037-.073a403.079 403.079 0 018.178-16.63l.112-.222c.298-.555.595-1.148.892-1.704.298-.593.632-1.148 1.041-1.63.78-.888 1.821-1.37 2.974-1.37 1.153 0 2.194.482 2.974 1.37.41.483.744 1.039 1.041 1.63.298.556.595 1.149.892 1.704l.112.222a489.55 489.55 0 018.142 16.667v.037c.297.593.557 1.26.855 1.853.185.443.372.813.483 1.184.297.962.408 1.888.26 2.851h-.002z" fill="#000"/>
</svg>