<svg xmlns="http://www.w3.org/2000/svg" fill="none" viewBox="0 0 216 44">
  <path fill-rule="evenodd" clip-rule="evenodd" d="M3.252 0A3.252 3.252 0 000 3.252v37.496A3.252 3.252 0 003.252 44h36.887a3.252 3.252 0 003.252-3.252V3.252A3.252 3.252 0 0040.139 0H3.252zM34.9 11.165c.176-1.208-.646-2.33-1.837-2.509-4.495-.674-8.754 3.376-13.297 12.148-3.567 6.888-6.775 10.35-8.96 10.186-1.2-.09-2.245.824-2.334 2.04-.088 1.217.813 2.277 2.013 2.367 4.423.331 8.625-3.822 13.14-12.539 3.535-6.827 6.693-10.147 8.801-9.83 1.19.177 2.298-.656 2.474-1.864z" fill="url(#Logo/Full__paint0_linear)"/>
  <path fill-rule="evenodd" clip-rule="evenodd" d="M53.691 34.7V9.3h5.045v20.927h11.077v4.471H53.69zm27.34.321c-5.503 0-9.172-3.827-9.172-9.05 0-5.223 3.669-9.015 9.172-9.015 5.362 0 9.137 3.65 9.137 9.015 0 5.33-3.775 9.05-9.137 9.05zm0-4.22c2.47 0 4.445-1.968 4.445-4.83s-1.905-4.83-4.445-4.83c-2.681 0-4.48 2.076-4.48 4.83 0 2.719 1.834 4.83 4.48 4.83zm17.215 4.22c-2.963 0-4.903-1.896-4.903-5.83v-8.085h-2.047v-3.9h2.047V11.52l4.62-.5v6.188h4.657v3.899h-4.656v7.405c0 1.538.388 2.254 1.481 2.254.565 0 1.412-.215 2.188-.609l1.164 3.756c-1.094.609-2.223 1.11-4.55 1.11zm13.017 0c-2.963 0-4.903-1.896-4.903-5.83v-8.085h-2.046v-3.9h2.046V11.52l4.621-.5v6.188h4.656v3.899h-4.656v7.405c0 1.538.388 2.254 1.482 2.254.564 0 1.411-.215 2.187-.609l1.164 3.756c-1.094.609-2.223 1.11-4.551 1.11zm10.266-20.175c-1.694 0-2.928-1.288-2.928-2.898 0-1.574 1.234-2.862 2.928-2.862 1.658 0 2.928 1.288 2.928 2.862 0 1.61-1.27 2.898-2.928 2.898zm-2.364 19.853V17.207h4.621v17.492h-4.621zm24.412-8.907c0 .572-.071 1.395-.106 1.681h-12.1c.564 2.111 2.222 3.363 4.551 3.363 1.94 0 3.28-.823 4.198-1.967l2.998 2.826c-1.446 1.895-3.669 3.326-7.514 3.326-5.291 0-9.031-3.613-9.031-9.086 0-5.33 3.634-8.979 8.749-8.979 4.868 0 8.255 3.72 8.255 8.836zm-8.29-4.758c-1.87 0-3.352 1.074-3.881 3.077h7.585c-.459-1.86-1.694-3.077-3.704-3.077z" fill="#18C8CA"/>
  <path fill-rule="evenodd" clip-rule="evenodd" d="M175.75 34.7V8.37h4.621V34.7h-4.621zm-6.033-19.854c-1.693 0-2.928-1.288-2.928-2.898 0-1.574 1.235-2.861 2.928-2.861 1.658 0 2.928 1.287 2.928 2.861 0 1.61-1.27 2.898-2.928 2.898zM146.893 34.7V9.3h16.615v4.472h-11.711v6.797h9.771v4.507h-9.771V34.7h-4.904zm20.461-17.493v17.492h4.621V17.207h-4.621zm32.701 10.267a17.27 17.27 0 00.106-1.682c0-5.115-3.386-8.836-8.255-8.836-5.115 0-8.748 3.65-8.748 8.98 0 5.473 3.739 9.086 9.031 9.086 3.845 0 6.067-1.431 7.513-3.327l-2.998-2.826c-.917 1.144-2.258 1.967-4.198 1.967-2.328 0-3.986-1.252-4.551-3.362h12.1zm-8.184-6.44c-1.87 0-3.351 1.074-3.88 3.077h7.584c-.459-1.86-1.693-3.076-3.704-3.076zm10.477 11.412c1.87 1.645 4.233 2.576 6.985 2.576 4.515 0 6.667-2.361 6.667-5.438 0-3.47-2.187-4.293-5.926-5.688-1.693-.644-2.54-1.145-2.54-1.86 0-.93.917-1.288 1.623-1.288 1.27 0 2.822.573 4.127 1.86l2.258-3.47c-1.976-1.538-3.916-2.182-6.279-2.182-3.563 0-6.245 2.04-6.245 5.187 0 3.399 2.47 4.758 5.327 5.724 2.223.751 3.105 1.145 3.105 1.896 0 .858-.741 1.43-2.082 1.43-1.905 0-3.386-.679-4.797-2.002l-2.223 3.255z" fill="#006B78"/>
  <defs>
    <linearGradient id="Logo/Full__paint0_linear" x1="-13.485" y1="25.573" x2="28.352" y2="52.389" gradientUnits="userSpaceOnUse">
      <stop stop-color="#2BEAED"/>
      <stop offset="1" stop-color="#0FCCCE"/>
    </linearGradient>
  </defs>
</svg>