<svg xmlns="http://www.w3.org/2000/svg" fill="none" viewBox="11 13 143.3 20.93">
  <path d="M48.948 13c-5.77 0-10.464 4.694-10.464 10.463 0 5.77 4.694 10.464 10.464 10.464 5.769 0 10.463-4.694 10.463-10.464C59.411 17.694 54.717 13 48.948 13zm6.772 10.463c0 3.727-3.046 6.773-6.772 6.773-3.727 0-6.773-3.046-6.773-6.773 0-3.726 3.046-6.772 6.773-6.772 3.726 0 6.772 3.046 6.772 6.772zM27.268 13.43H11.215c-.107 0-.215.072-.215.215v3.19c0 .107.107.214.215.214h6.2v16.233c0 .107.107.215.214.215h3.19a.231.231 0 00.214-.215V17.049h6.2a.231.231 0 00.215-.215v-3.189c.035-.143-.072-.215-.18-.215zm126.815 16.448h-7.632V13.645c0-.107-.108-.215-.216-.215h-3.189c-.107 0-.215.108-.215.215v19.673c0 .107.108.215.215.215h11.037a.23.23 0 00.215-.215v-3.19c0-.143-.107-.25-.215-.25zm-26.266 3.332l-8.528-19.672c-.036-.072-.108-.144-.179-.144h-3.548c-.071 0-.143.036-.179.143L106.89 33.21a.233.233 0 000 .215.198.198 0 00.18.108l3.332-.036c.072 0 .143-.036.179-.144l6.737-15.336 6.772 15.336c.036.072.108.144.179.144l3.333.036a.197.197 0 00.179-.108c.036-.072.036-.143.036-.215zM91.661 13.43h-3.189a.231.231 0 00-.215.215v13.653l-10.93-13.76a.197.197 0 00-.179-.108H73.96a.231.231 0 00-.215.215v19.673c0 .107.108.215.215.215h3.19a.231.231 0 00.215-.215V19.7l10.929 13.724h3.297a.231.231 0 00.214-.215V13.645c.072-.143-.035-.215-.143-.215z" fill="#000"/>
</svg>